<?xml version="1.0" encoding="UTF-8" standalone="no"?>
<!DOCTYPE svg PUBLIC "-//W3C//DTD SVG 1.1//EN" "http://www.w3.org/Graphics/SVG/1.1/DTD/svg11.dtd">
<svg width="100%" height="100%" viewBox="0 0 600 600" version="1.1" xmlns="http://www.w3.org/2000/svg" xmlns:xlink="http://www.w3.org/1999/xlink" xml:space="preserve" xmlns:serif="http://www.serif.com/" style="fill-rule:evenodd;clip-rule:evenodd;stroke-linejoin:round;stroke-miterlimit:2;">
    <g transform="matrix(2.0692,0,0,2.0692,-280.412,-332.142)">
        <circle cx="280.5" cy="305.5" r="144.5" style="fill:rgb(209,57,126);"/>
    </g>
    <g transform="matrix(1.14966,0,0,1.20212,-50.2775,-53.9402)">
        <path d="M211.377,215.065C204.524,215.065 197.952,217.668 193.106,222.303C188.26,226.937 185.538,233.223 185.538,239.777C185.538,267.852 185.538,320.49 185.538,348.806C185.538,362.69 197.254,373.971 211.771,374.065C242.451,374.264 300.461,374.64 329.097,374.826C335.211,374.865 341.09,372.57 345.428,368.449C349.766,364.328 352.206,358.722 352.206,352.874C352.206,352.874 352.206,318.112 352.206,318.112C352.206,318.112 399.227,367.017 399.227,367.017C400.402,368.24 402.059,368.935 403.795,368.935L417.615,368.935C421.043,368.935 423.821,366.278 423.821,363L423.821,225C423.821,221.722 421.043,219.065 417.615,219.065L404.795,219.065C402.995,219.065 401.283,219.812 400.105,221.113L353.206,272.879C353.206,272.879 353.206,239.279 353.206,239.279C353.206,232.857 350.538,226.698 345.79,222.157C341.042,217.616 334.602,215.065 327.887,215.065L211.377,215.065Z" style="fill:white;"/>
    </g>
</svg>
