<?xml version="1.0" encoding="UTF-8" standalone="no"?>
<!DOCTYPE svg PUBLIC "-//W3C//DTD SVG 1.1//EN" "http://www.w3.org/Graphics/SVG/1.1/DTD/svg11.dtd">
<svg width="100%" height="100%" viewBox="0 0 600 600" version="1.1" xmlns="http://www.w3.org/2000/svg" xmlns:xlink="http://www.w3.org/1999/xlink" xml:space="preserve" xmlns:serif="http://www.serif.com/" style="fill-rule:evenodd;clip-rule:evenodd;stroke-linejoin:round;stroke-miterlimit:2;">
    <g transform="matrix(1.52595,0,0,1.52595,-128.029,-166.178)">
        <circle cx="280.5" cy="305.5" r="144.5" style="fill:rgb(209,57,126);"/>
    </g>
    <g transform="matrix(0.847825,0,0,0.88651,41.685,38.9839)">
        <path d="M218.367,212.952C199.016,212.952 183.328,227.955 183.328,246.462L183.328,341.972C183.328,360.799 199.216,376.097 218.901,376.224C248.505,376.416 295.305,376.72 323.079,376.9C331.37,376.953 339.341,373.841 345.224,368.253C351.107,362.665 354.415,355.063 354.415,347.133C354.415,347.133 354.415,323.531 354.415,323.531C354.415,323.531 397.6,368.447 397.6,368.447C399.194,370.105 401.441,371.048 403.795,371.048L417.615,371.048C422.263,371.048 426.031,367.445 426.031,363L426.031,225C426.031,220.555 422.263,216.952 417.615,216.952L404.795,216.952C402.354,216.952 400.033,217.966 398.435,219.73L355.415,267.213C355.415,267.213 355.415,245.787 355.415,245.787C355.415,237.078 351.798,228.727 345.359,222.569C338.921,216.411 330.188,212.952 321.082,212.952L218.367,212.952Z" style="fill:white;"/>
    </g>
</svg>
