<?xml version="1.0" encoding="UTF-8" standalone="no"?>
<!DOCTYPE svg PUBLIC "-//W3C//DTD SVG 1.1//EN" "http://www.w3.org/Graphics/SVG/1.1/DTD/svg11.dtd">
<svg width="100%" height="100%" viewBox="0 0 600 600" version="1.1" xmlns="http://www.w3.org/2000/svg" xmlns:xlink="http://www.w3.org/1999/xlink" xml:space="preserve" xmlns:serif="http://www.serif.com/" style="fill-rule:evenodd;clip-rule:evenodd;stroke-linejoin:round;stroke-miterlimit:2;">
    <g transform="matrix(2.0692,0,0,2.0692,-280.412,-332.142)">
        <circle cx="280.5" cy="305.5" r="144.5" style="fill:rgb(209,57,126);"/>
    </g>
    <g transform="matrix(1.00432,0,0,1.00432,-5.64562,-31.608)">
        <g transform="matrix(1,0,0,1,7.07025,-14.909)">
            <path d="M296.928,240.466C277.599,240.466 261.93,256.135 261.93,275.464L261.93,345.467C261.93,364.796 277.599,380.466 296.928,380.466L296.931,380.466C316.26,380.466 331.93,364.796 331.93,345.467L331.93,275.464C331.93,256.135 316.26,240.466 296.931,240.466L296.928,240.466Z" style="fill:white;"/>
        </g>
        <g transform="matrix(1.09868,0,0,1.09868,-29.9983,-33.0726)">
            <path d="M266.649,308.855C266.624,303.957 262.646,300 257.748,300L257.747,300C255.333,300 253.02,300.967 251.325,302.685C249.63,304.404 248.694,306.729 248.726,309.143C248.87,319.765 249.114,337.874 249.33,353.82C249.576,372.064 263.374,387.267 281.509,389.275C289.834,390.197 296.53,390.939 296.53,390.939L296.53,410.602C296.53,410.602 286.173,410.706 278.723,410.781C274.595,410.822 271.271,414.18 271.271,418.308C271.271,418.308 271.271,418.309 271.271,418.31C271.271,420.311 272.066,422.23 273.481,423.645C274.896,425.06 276.815,425.855 278.817,425.855C292.045,425.855 319.26,425.855 332.386,425.855C336.497,425.855 339.853,422.566 339.935,418.455C339.935,418.454 339.935,418.454 339.935,418.453C339.976,416.428 339.204,414.472 337.792,413.021C336.38,411.57 334.445,410.745 332.421,410.731C324.892,410.676 314.53,410.602 314.53,410.602L314.53,390.939C314.53,390.939 320.142,390.271 327.371,389.411C345.374,387.269 359.009,372.127 359.258,353.998C359.478,337.998 359.729,319.765 359.875,309.106C359.908,306.703 358.976,304.386 357.288,302.675C355.6,300.963 353.297,300 350.893,300C350.893,300 350.892,300 350.892,300C345.981,300 342,303.981 342,308.892C342,317.878 342,332.231 342,345.068C342,360.428 329.548,372.88 314.188,372.88C307.424,372.88 301.042,372.88 294.651,372.88C279.347,372.88 266.919,360.517 266.839,345.213C266.772,332.322 266.696,317.872 266.649,308.855Z" style="fill:white;"/>
        </g>
    </g>
</svg>
