<?xml version="1.0" encoding="UTF-8" standalone="no"?>
<!DOCTYPE svg PUBLIC "-//W3C//DTD SVG 1.1//EN" "http://www.w3.org/Graphics/SVG/1.1/DTD/svg11.dtd">
<svg width="100%" height="100%" viewBox="0 0 600 600" version="1.1" xmlns="http://www.w3.org/2000/svg" xmlns:xlink="http://www.w3.org/1999/xlink" xml:space="preserve" xmlns:serif="http://www.serif.com/" style="fill-rule:evenodd;clip-rule:evenodd;stroke-linejoin:round;stroke-miterlimit:2;">
    <g transform="matrix(1.52595,0,0,1.52595,-128.029,-166.178)">
        <circle cx="280.5" cy="305.5" r="144.5" style="fill:rgb(209,57,126);"/>
    </g>
    <g transform="matrix(0.740645,0,0,0.740645,74.5991,55.4529)">
        <g transform="matrix(1,0,0,1,7.07025,-14.909)">
            <path d="M296.929,240.466C277.599,240.466 261.93,256.135 261.93,275.465C261.93,296.844 261.93,324.087 261.93,345.466C261.93,364.796 277.599,380.466 296.929,380.466C296.929,380.466 296.93,380.466 296.931,380.466C316.26,380.466 331.93,364.796 331.93,345.466C331.93,324.087 331.93,296.844 331.93,275.465C331.93,256.135 316.26,240.466 296.931,240.466C296.93,240.466 296.929,240.466 296.929,240.466Z" style="fill:white;"/>
        </g>
        <g transform="matrix(1.09868,0,0,1.09868,-29.9983,-33.0726)">
            <path d="M266.65,308.966C266.624,304.007 262.596,300 257.637,300L257.634,300C255.25,300 252.966,300.955 251.291,302.652C249.617,304.349 248.693,306.646 248.725,309.03C248.835,317.175 249.005,329.787 249.176,342.449C249.51,367.188 268.221,387.804 292.812,390.527C295.129,390.784 296.53,390.939 296.53,390.939L296.53,410.602C296.53,410.602 286.144,410.706 278.692,410.781C274.582,410.822 271.271,414.166 271.271,418.277C271.271,418.278 271.271,418.279 271.271,418.28C271.271,422.464 274.663,425.855 278.846,425.855C292.108,425.855 319.364,425.855 332.454,425.855C336.528,425.855 339.853,422.596 339.934,418.523C339.934,418.523 339.934,418.522 339.934,418.521C339.975,416.479 339.196,414.505 337.771,413.041C336.346,411.577 334.395,410.745 332.352,410.73C324.829,410.676 314.53,410.602 314.53,410.602L314.53,390.939C314.53,390.939 315.124,390.869 316.173,390.744C340.587,387.839 359.076,367.305 359.413,342.722C359.589,329.952 359.764,317.196 359.876,308.992C359.909,306.619 358.989,304.331 357.322,302.641C355.655,300.951 353.381,300 351.007,300C351.007,300 351.006,300 351.005,300C348.617,300 346.326,300.949 344.638,302.638C342.949,304.326 342,306.617 342,309.005C342,315.743 342,325.453 342,335.276C342,345.249 338.038,354.814 330.986,361.866C323.934,368.918 314.369,372.88 304.395,372.88C304.394,372.88 304.393,372.88 304.392,372.88C283.701,372.88 266.896,356.164 266.788,335.472C266.737,325.563 266.685,315.75 266.65,308.966Z" style="fill:white;"/>
        </g>
    </g>
</svg>
