<?xml version="1.0" encoding="UTF-8" standalone="no"?>
<!DOCTYPE svg PUBLIC "-//W3C//DTD SVG 1.1//EN" "http://www.w3.org/Graphics/SVG/1.1/DTD/svg11.dtd">
<svg width="100%" height="100%" viewBox="0 0 600 600" version="1.1" xmlns="http://www.w3.org/2000/svg" xmlns:xlink="http://www.w3.org/1999/xlink" xml:space="preserve" xmlns:serif="http://www.serif.com/" style="fill-rule:evenodd;clip-rule:evenodd;stroke-linejoin:round;stroke-miterlimit:2;">
    <g transform="matrix(14.9131,0,0,14.9131,300,300)">
        <g transform="matrix(1,0,0,1,-24,-24)">
            <path d="M24,4C12.978,4 4,12.978 4,24C4,35.022 12.978,44 24,44C35.022,44 44,35.022 44,24C44,12.978 35.022,4 24,4ZM24,8C32.86,8 40,15.14 40,24C40,32.86 32.86,40 24,40C15.14,40 8,32.86 8,24C8,15.14 15.14,8 24,8ZM21.379,16C18.299,16 15.392,16.343 12.656,17.031C11.972,17.201 11.457,17.712 11.457,18.738C11.457,19.764 12.142,20.621 13.168,20.449C13.68,20.449 13.853,20.277 14.195,20.277C16.419,19.763 18.985,19.422 21.379,19.422C26.169,19.422 31.129,20.618 34.551,22.5C35.063,22.67 35.232,22.844 35.574,22.844C36.602,22.844 37.287,22.159 37.457,21.133C37.457,20.279 36.948,19.764 36.434,19.422C32.158,17.198 26.681,16 21.379,16ZM21.039,21.988C18.131,21.988 16.079,22.502 14.027,23.016C13.171,23.358 12.828,23.699 12.828,24.555C12.828,25.239 13.339,25.922 14.195,25.922C14.537,25.922 14.709,25.922 15.051,25.75C16.591,25.408 18.643,25.066 20.867,25.066C25.313,25.066 29.42,26.091 32.328,27.973C32.67,28.143 33.013,28.316 33.355,28.316C34.209,28.316 34.721,27.631 34.895,26.777C34.895,26.265 34.553,25.752 34.039,25.41C30.275,23.186 25.829,21.988 21.039,21.988ZM21.551,28.016C19.157,28.016 16.931,28.357 14.707,28.871C14.023,28.871 13.684,29.382 13.684,30.066C13.684,30.75 14.195,31.266 14.879,31.266C15.051,31.266 15.392,31.094 15.734,31.094C17.444,30.752 19.497,30.41 21.379,30.41C24.799,30.41 28.051,31.265 30.617,32.805C30.959,32.975 31.131,33.145 31.473,33.145C31.985,33.145 32.498,32.805 32.84,31.949C32.84,31.265 32.498,31.092 32.156,30.75C29.076,29.04 25.485,28.016 21.551,28.016Z" style="fill:rgb(209,57,126);fill-rule:nonzero;"/>
        </g>
    </g>
</svg>
